<?xml version="1.0" encoding="UTF-8" standalone="no"?>
<svg
   version="1.1"
   width="20"
   height="20"
   viewBox="0 0 20 20"
   id="svg14"
   xmlns="http://www.w3.org/2000/svg">
  <defs
     id="defs18" />
  <path
     d="m 17.37461,7.4564818 h -6.836396 c -0.235856,0 -0.427275,-0.2676238 -0.427275,-0.5973745 0,-0.3297507 0.191419,-0.5973745 0.427275,-0.5973745 h 6.836396 c 0.235855,0 0.427275,0.2676238 0.427275,0.5973745 0,0.3297507 -0.19142,0.5973745 -0.427275,0.5973745 z"
     fill="#000000"
     id="path4"
     style="stroke-width:0.999997;fill:#5195a5;fill-opacity:1" />
  <path
     d="m 17.37461,11.040729 h -6.836396 c -0.235856,0 -0.427275,-0.267624 -0.427275,-0.597374 0,-0.329751 0.191419,-0.5973753 0.427275,-0.5973753 h 6.836396 c 0.235855,0 0.427275,0.2676243 0.427275,0.5973753 0,0.32975 -0.19142,0.597374 -0.427275,0.597374 z"
     fill="#000000"
     id="path6"
     style="stroke-width:0.999997;fill:#5195a5;fill-opacity:1" />
  <path
     d="m 17.37461,14.624975 h -6.836396 c -0.235856,0 -0.427275,-0.267623 -0.427275,-0.597374 0,-0.329751 0.191419,-0.597374 0.427275,-0.597374 h 6.836396 c 0.235855,0 0.427275,0.267623 0.427275,0.597374 0,0.329751 -0.19142,0.597374 -0.427275,0.597374 z"
     fill="#000000"
     id="path8"
     style="stroke-width:0.999997;fill:#5195a5;fill-opacity:1" />
  <path
     d="m 3.9422323,14.625133 c -0.085833,0 -0.1727953,-0.02031 -0.2529813,-0.06332 C 3.4983857,14.460252 3.3775419,14.253568 3.3775419,14.02776 V 6.8592663 c 0,-0.2258075 0.1208445,-0.4336939 0.3117091,-0.5340528 0.1908653,-0.1003585 0.4201296,-0.078854 0.5917956,0.056154 l 4.5175232,3.5842468 c 0.142302,0.1123067 0.2258761,0.2903237 0.2258761,0.4778997 0,0.187575 -0.083573,0.365593 -0.2258761,0.477899 L 4.2810466,14.505658 C 4.1816611,14.584506 4.0619467,14.62513 3.9422323,14.62513 Z M 4.5069228,8.0540153 v 4.7789957 l 3.0120585,-2.389498 z"
     fill="#000000"
     id="path12"
     style="stroke-width:0.999997;fill:#5195a5;fill-opacity:1" />
  <path
     style="fill:none;stroke:#3c6d7a;stroke-width:1px;stroke-linecap:round;stroke-linejoin:miter;stroke-opacity:1"
     d="M 0.89182239,16.149734 V 6.1224634 c 0,0 -0.012126,-2.699738 2.67428771,-2.699738 H 19.202181"
     id="path400" />
</svg>
